<svg width="50" height="51" viewBox="0 0 50 51" fill="none" xmlns="http://www.w3.org/2000/svg">
<ellipse cx="25" cy="25.3113" rx="25" ry="24.7642" fill="#DAFFAA"/>
<path d="M29.59 20.933L23 27.4608L19.41 23.9146L18 25.3113L23 30.2641L31 22.3396L29.59 20.933ZM25 15.4056C19.48 15.4056 15 19.8434 15 25.3113C15 30.7792 19.48 35.217 25 35.217C30.52 35.217 35 30.7792 35 25.3113C35 19.8434 30.52 15.4056 25 15.4056ZM25 33.2358C20.58 33.2358 17 29.6896 17 25.3113C17 20.933 20.58 17.3868 25 17.3868C29.42 17.3868 33 20.933 33 25.3113C33 29.6896 29.42 33.2358 25 33.2358Z" fill="white"/>
</svg>
